<svg xmlns="http://www.w3.org/2000/svg" width="19.961" height="18.426" viewBox="0 0 19.961 18.426">
  <g id="share-symbol" transform="translate(0 -0.011)">
    <path id="Path" d="M16.663,4.834,12.056.228A.739.739,0,0,0,11.516,0a.836.836,0,0,0-.3.06.717.717,0,0,0-.468.708v2.3H8.829A19.6,19.6,0,0,0,6.472,3.2a12.715,12.715,0,0,0-1.913.366,7.788,7.788,0,0,0-1.494.582,6.388,6.388,0,0,0-1.134.738,4.677,4.677,0,0,0-.822.888,5.509,5.509,0,0,0-.564.978A5.649,5.649,0,0,0,.21,7.809a8.274,8.274,0,0,0-.168,1.08Q0,9.393,0,9.981a5.743,5.743,0,0,0,.21,1.464,9.549,9.549,0,0,0,.462,1.367q.252.575.594,1.193t.474.822q.132.2.252.372a.375.375,0,0,0,.312.156.651.651,0,0,0,.144-.024.37.37,0,0,0,.24-.408q-.54-4.031.888-5.674,1.38-1.571,5.254-1.572h1.92v2.3a.717.717,0,0,0,.468.708.834.834,0,0,0,.3.06.714.714,0,0,0,.54-.228l4.606-4.607a.753.753,0,0,0,0-1.079Z" transform="translate(3.071 0.011)" fill="#fff"/>
    <path id="Path-2" data-name="Path" d="M16.638,9.981a.356.356,0,0,0-.42.1,2.528,2.528,0,0,1-.648.444.378.378,0,0,0-.216.348v2.567a1.925,1.925,0,0,1-1.919,1.919H3.455A1.848,1.848,0,0,1,2.1,14.791a1.848,1.848,0,0,1-.564-1.355V3.455A1.848,1.848,0,0,1,2.1,2.1a1.848,1.848,0,0,1,1.356-.564H4.8a.554.554,0,0,0,.192-.048,8.009,8.009,0,0,1,1.6-.72A.35.35,0,0,0,6.9.384a.369.369,0,0,0-.114-.27A.369.369,0,0,0,6.514,0H3.455A3.328,3.328,0,0,0,1.014,1.014,3.328,3.328,0,0,0,0,3.455v9.981a3.328,3.328,0,0,0,1.014,2.441A3.328,3.328,0,0,0,3.455,16.89h9.981a3.461,3.461,0,0,0,3.455-3.455V10.328A.362.362,0,0,0,16.638,9.981Z" transform="translate(0 1.547)" fill="#fff"/>
  </g>
</svg>
